<svg xmlns="http://www.w3.org/2000/svg" width="500" zoomAndPan="magnify" viewBox="0 0 375 374.999991" height="500"
     preserveAspectRatio="xMidYMid meet" version="1.0">
    <defs>
        <g/>
        <clipPath id="f65b8a946b">
            <path d="M 194 125.625 L 225 125.625 L 225 187.875 L 194 187.875 Z M 194 125.625 " clip-rule="nonzero"/>
        </clipPath>
        <clipPath id="b08f4af549">
            <path d="M 150 125.625 L 181 125.625 L 181 187.875 L 150 187.875 Z M 150 125.625 " clip-rule="nonzero"/>
        </clipPath>
    </defs>
    <g clip-path="url(#f65b8a946b)">
        <path fill="#ff914d"
              d="M 194.015625 125.617188 L 194.015625 138.347656 L 212.296875 156.742188 L 194.015625 175.132812 L 194.015625 187.863281 L 224.953125 156.742188 Z M 194.015625 125.617188 "
              fill-opacity="1" fill-rule="nonzero"/>
    </g>
    <g clip-path="url(#b08f4af549)">
        <path fill="#ff914d"
              d="M 181 138.347656 L 181 125.617188 L 150.0625 156.742188 L 181 187.863281 L 181 175.132812 L 162.71875 156.742188 Z M 181 138.347656 "
              fill-opacity="1" fill-rule="nonzero"/>
    </g>
    <path fill="#ff914d"
          d="M 172.398438 156.742188 L 187.507812 141.542969 L 202.617188 156.742188 L 187.507812 171.941406 Z M 172.398438 156.742188 "
          fill-opacity="1" fill-rule="nonzero"/>
    <g fill="currentColor" fill-opacity="1">
        <g transform="translate(143.715265, 219.314486)">
            <g>
                <path d="M 18.234375 0 L 2.234375 0 L 2.234375 -13.8125 L 17.9375 -13.8125 L 17.9375 -10.4375 L 6.40625 -10.4375 L 6.40625 -8.328125 L 14.8125 -8.328125 L 14.8125 -5.484375 L 6.40625 -5.484375 L 6.40625 -3.375 L 18.234375 -3.375 Z M 18.234375 0 "/>
            </g>
        </g>
    </g>
    <g fill="currentColor" fill-opacity="1">
        <g transform="translate(165.203021, 219.314486)">
            <g>
                <path d="M 2.234375 0 L 2.234375 -13.8125 L 12.234375 -13.8125 C 14.191406 -13.8125 15.738281 -13.59375 16.875 -13.15625 C 18.019531 -12.71875 18.847656 -12 19.359375 -11 C 19.867188 -10 20.125 -8.632812 20.125 -6.90625 C 20.125 -5.175781 19.867188 -3.8125 19.359375 -2.8125 C 18.847656 -1.820312 18.019531 -1.101562 16.875 -0.65625 C 15.738281 -0.21875 14.191406 0 12.234375 0 Z M 6.40625 -10.296875 L 6.40625 -3.53125 L 15.578125 -3.53125 L 15.578125 -10.296875 Z M 6.40625 -10.296875 "/>
            </g>
        </g>
    </g>
    <g fill="currentColor" fill-opacity="1">
        <g transform="translate(188.782562, 219.314486)">
            <g>
                <path d="M 9.46875 -8.40625 L 19.90625 -8.40625 L 19.90625 -5.828125 C 19.90625 -4.347656 19.597656 -3.160156 18.984375 -2.265625 C 18.378906 -1.367188 17.398438 -0.710938 16.046875 -0.296875 C 14.703125 0.117188 12.910156 0.328125 10.671875 0.328125 C 8.347656 0.328125 6.519531 0.09375 5.1875 -0.375 C 3.863281 -0.84375 2.90625 -1.597656 2.3125 -2.640625 C 1.71875 -3.679688 1.421875 -5.101562 1.421875 -6.90625 C 1.421875 -8.75 1.675781 -10.1875 2.1875 -11.21875 C 2.695312 -12.257812 3.535156 -13.003906 4.703125 -13.453125 C 5.867188 -13.910156 7.503906 -14.140625 9.609375 -14.140625 C 13.222656 -14.140625 16.359375 -14.03125 19.015625 -13.8125 L 19.140625 -10.109375 C 15.679688 -10.441406 12.90625 -10.660156 10.8125 -10.765625 C 9.632812 -10.835938 8.03125 -10.90625 6 -10.96875 L 6 -3.453125 C 7.457031 -3.367188 9.070312 -3.328125 10.84375 -3.328125 C 12.675781 -3.328125 14.34375 -3.367188 15.84375 -3.453125 L 15.84375 -5.5625 L 9.46875 -5.5625 Z M 9.46875 -8.40625 "/>
            </g>
        </g>
    </g>
    <g fill="currentColor" fill-opacity="1">
        <g transform="translate(211.834083, 219.314486)">
            <g>
                <path d="M 18.234375 0 L 2.234375 0 L 2.234375 -13.8125 L 17.9375 -13.8125 L 17.9375 -10.4375 L 6.40625 -10.4375 L 6.40625 -8.328125 L 14.8125 -8.328125 L 14.8125 -5.484375 L 6.40625 -5.484375 L 6.40625 -3.375 L 18.234375 -3.375 Z M 18.234375 0 "/>
            </g>
        </g>
    </g>
    <g fill="currentColor" fill-opacity="1">
        <g transform="translate(66.687927, 247.064485)">
            <g>
                <path d="M 2.234375 0 L 2.234375 -13.8125 L 12.234375 -13.8125 C 14.191406 -13.8125 15.738281 -13.59375 16.875 -13.15625 C 18.019531 -12.71875 18.847656 -12 19.359375 -11 C 19.867188 -10 20.125 -8.632812 20.125 -6.90625 C 20.125 -5.175781 19.867188 -3.8125 19.359375 -2.8125 C 18.847656 -1.820312 18.019531 -1.101562 16.875 -0.65625 C 15.738281 -0.21875 14.191406 0 12.234375 0 Z M 6.40625 -10.296875 L 6.40625 -3.53125 L 15.578125 -3.53125 L 15.578125 -10.296875 Z M 6.40625 -10.296875 "/>
            </g>
        </g>
    </g>
    <g fill="currentColor" fill-opacity="1">
        <g transform="translate(90.267467, 247.064485)">
            <g>
                <path d="M 18.234375 0 L 2.234375 0 L 2.234375 -13.8125 L 17.9375 -13.8125 L 17.9375 -10.4375 L 6.40625 -10.4375 L 6.40625 -8.328125 L 14.8125 -8.328125 L 14.8125 -5.484375 L 6.40625 -5.484375 L 6.40625 -3.375 L 18.234375 -3.375 Z M 18.234375 0 "/>
            </g>
        </g>
    </g>
    <g fill="currentColor" fill-opacity="1">
        <g transform="translate(111.755223, 247.064485)">
            <g>
                <path d="M 12.3125 0 L 6.03125 0 L -0.0625 -13.71875 L -0.0625 -13.8125 L 4.46875 -13.8125 L 9.203125 -2.828125 L 9.296875 -2.828125 L 14.140625 -13.8125 L 18.53125 -13.8125 L 18.53125 -13.71875 Z M 12.3125 0 "/>
            </g>
        </g>
    </g>
    <g fill="currentColor" fill-opacity="1">
        <g transform="translate(132.247857, 247.064485)">
            <g>
                <path d="M 18.234375 0 L 2.234375 0 L 2.234375 -13.8125 L 17.9375 -13.8125 L 17.9375 -10.4375 L 6.40625 -10.4375 L 6.40625 -8.328125 L 14.8125 -8.328125 L 14.8125 -5.484375 L 6.40625 -5.484375 L 6.40625 -3.375 L 18.234375 -3.375 Z M 18.234375 0 "/>
            </g>
        </g>
    </g>
    <g fill="currentColor" fill-opacity="1">
        <g transform="translate(153.735614, 247.064485)">
            <g>
                <path d="M 16.171875 0 L 2.234375 0 L 2.234375 -13.8125 L 6.40625 -13.8125 L 6.40625 -3.53125 L 16.171875 -3.53125 Z M 16.171875 0 "/>
            </g>
        </g>
    </g>
    <g fill="currentColor" fill-opacity="1">
        <g transform="translate(172.29892, 247.064485)">
            <g>
                <path d="M 11.015625 0.328125 C 8.578125 0.328125 6.671875 0.101562 5.296875 -0.34375 C 3.921875 -0.800781 2.929688 -1.546875 2.328125 -2.578125 C 1.722656 -3.617188 1.421875 -5.0625 1.421875 -6.90625 C 1.421875 -8.757812 1.71875 -10.203125 2.3125 -11.234375 C 2.90625 -12.273438 3.890625 -13.019531 5.265625 -13.46875 C 6.640625 -13.914062 8.554688 -14.140625 11.015625 -14.140625 C 13.460938 -14.140625 15.375 -13.914062 16.75 -13.46875 C 18.125 -13.019531 19.109375 -12.273438 19.703125 -11.234375 C 20.296875 -10.203125 20.59375 -8.757812 20.59375 -6.90625 C 20.59375 -5.0625 20.296875 -3.617188 19.703125 -2.578125 C 19.109375 -1.546875 18.125 -0.800781 16.75 -0.34375 C 15.375 0.101562 13.460938 0.328125 11.015625 0.328125 Z M 11.015625 -3.328125 C 12.691406 -3.328125 14.367188 -3.367188 16.046875 -3.453125 L 16.046875 -10.375 C 14.179688 -10.445312 12.503906 -10.484375 11.015625 -10.484375 C 9.523438 -10.484375 7.851562 -10.445312 6 -10.375 L 6 -3.453125 C 7.65625 -3.367188 9.328125 -3.328125 11.015625 -3.328125 Z M 11.015625 -3.328125 "/>
            </g>
        </g>
    </g>
    <g fill="currentColor" fill-opacity="1">
        <g transform="translate(196.345565, 247.064485)">
            <g>
                <path d="M 2.234375 0 L 2.234375 -13.8125 L 13.3125 -13.8125 C 15.28125 -13.8125 16.722656 -13.410156 17.640625 -12.609375 C 18.566406 -11.816406 19.03125 -10.597656 19.03125 -8.953125 C 19.03125 -7.304688 18.566406 -6.082031 17.640625 -5.28125 C 16.722656 -4.476562 15.28125 -4.078125 13.3125 -4.078125 L 6.40625 -4.078125 L 6.40625 0 Z M 6.40625 -10.546875 L 6.40625 -7.359375 L 14.609375 -7.359375 L 14.609375 -10.546875 Z M 6.40625 -10.546875 "/>
            </g>
        </g>
    </g>
    <g fill="currentColor" fill-opacity="1">
        <g transform="translate(218.05671, 247.064485)">
            <g>
                <path d="M 6.40625 0 L 2.234375 0 L 2.234375 -13.8125 L 8.890625 -13.8125 L 12.46875 -6.140625 L 12.578125 -6.140625 L 16.265625 -13.8125 L 22.765625 -13.8125 L 22.765625 0 L 18.609375 0 L 18.609375 -10.984375 L 18.5 -10.984375 L 14.578125 -2.84375 L 10.296875 -2.84375 L 6.515625 -10.984375 L 6.40625 -10.984375 Z M 6.40625 0 "/>
            </g>
        </g>
    </g>
    <g fill="currentColor" fill-opacity="1">
        <g transform="translate(245.088718, 247.064485)">
            <g>
                <path d="M 18.234375 0 L 2.234375 0 L 2.234375 -13.8125 L 17.9375 -13.8125 L 17.9375 -10.4375 L 6.40625 -10.4375 L 6.40625 -8.328125 L 14.8125 -8.328125 L 14.8125 -5.484375 L 6.40625 -5.484375 L 6.40625 -3.375 L 18.234375 -3.375 Z M 18.234375 0 "/>
            </g>
        </g>
    </g>
    <g fill="currentColor" fill-opacity="1">
        <g transform="translate(266.576464, 247.064485)">
            <g>
                <path d="M 6.234375 0 L 2.234375 0 L 2.234375 -13.8125 L 9.125 -13.8125 L 15.4375 -2.828125 L 15.546875 -2.828125 L 15.546875 -13.8125 L 19.546875 -13.8125 L 19.546875 0 L 12.65625 0 L 6.34375 -10.984375 L 6.234375 -10.984375 Z M 6.234375 0 "/>
            </g>
        </g>
    </g>
    <g fill="currentColor" fill-opacity="1">
        <g transform="translate(290.379395, 247.064485)">
            <g>
                <path d="M 11.046875 0 L 6.890625 0 L 6.890625 -10.296875 L 0.15625 -10.296875 L 0.15625 -13.8125 L 17.78125 -13.8125 L 17.78125 -10.296875 L 11.046875 -10.296875 Z M 11.046875 0 "/>
            </g>
        </g>
    </g>
</svg>
